<?xml version="1.0" encoding="UTF-8" standalone="no"?>
<!-- Created with Inkscape (http://www.inkscape.org/) -->

<svg
   xmlns:dc="http://purl.org/dc/elements/1.1/"
   xmlns:cc="http://creativecommons.org/ns#"
   xmlns:rdf="http://www.w3.org/1999/02/22-rdf-syntax-ns#"
   xmlns:svg="http://www.w3.org/2000/svg"
   xmlns="http://www.w3.org/2000/svg"
   xmlns:sodipodi="http://sodipodi.sourceforge.net/DTD/sodipodi-0.dtd"
   xmlns:inkscape="http://www.inkscape.org/namespaces/inkscape"
   width="35mm"
   height="35mm"
   viewBox="0 0 35 35"
   version="1.1"
   id="svg644"
   inkscape:version="0.92.4 (5da689c313, 2019-01-14)"
   sodipodi:docname="icon_light_source.svg">
  <defs
     id="defs9" />
  <sodipodi:namedview
     id="base"
     pagecolor="#000000"
     bordercolor="#666666"
     borderopacity="1.0"
     inkscape:pageopacity="0"
     inkscape:pageshadow="2"
     inkscape:zoom="1.979899"
     inkscape:cx="-235.50096"
     inkscape:cy="58.524341"
     inkscape:document-units="mm"
     inkscape:current-layer="layer1"
     showgrid="false"
     fit-margin-top="0"
     fit-margin-left="0"
     fit-margin-right="0"
     fit-margin-bottom="0"
     inkscape:window-width="2560"
     inkscape:window-height="1377"
     inkscape:window-x="-8"
     inkscape:window-y="-8"
     inkscape:window-maximized="1" />
  <metadata
     id="metadata641">
    <rdf:RDF>
      <cc:Work
         rdf:about="">
        <dc:format>image/svg+xml</dc:format>
        <dc:type
           rdf:resource="http://purl.org/dc/dcmitype/StillImage" />
        <dc:title />
      </cc:Work>
    </rdf:RDF>
  </metadata>
  <g
     inkscape:label="Layer 1"
     inkscape:groupmode="layer"
     id="layer1"
     transform="translate(-55.827381,-119.99405)">
    <g
       style="display:inline;overflow:hidden;fill:#fbfbfb;fill-opacity:1"
       id="g2669"
       transform="matrix(0.02849585,0,0,0.02849585,58.877294,122.89802)">
      <path
         id="path2658"
         d="m 512,256 a 42.666667,42.666667 0 0 0 42.66667,-42.66667 V 128 a 42.66667,42.66667 0 0 0 -85.33334,0 v 85.33333 A 42.666667,42.666667 0 0 0 512,256 Z m 384,213.33333 h -85.33333 a 42.66667,42.66667 0 0 0 0,85.33334 H 896 a 42.66667,42.66667 0 0 0 0,-85.33334 z M 256,512 A 42.666667,42.666667 0 0 0 213.33333,469.33333 H 128 a 42.66667,42.66667 0 0 0 0,85.33334 h 85.33333 A 42.666667,42.666667 0 0 0 256,512 Z m 9.38667,-298.66667 a 43.159818,43.159818 0 0 0 -59.30667,62.72 L 267.52,335.36 a 42.666667,42.666667 0 0 0 31.14667,11.94667 42.666667,42.666667 0 0 0 30.72,-13.22667 42.666667,42.666667 0 0 0 0,-60.16 z m 459.94666,133.97334 a 42.666667,42.666667 0 0 0 29.44,-11.94667 l 61.44,-59.30667 a 42.666667,42.666667 0 0 0 -57.6,-62.72 l -61.44,60.58667 a 42.666667,42.666667 0 0 0 0,60.16 42.666667,42.666667 0 0 0 28.16,13.22667 z M 512,768 a 42.666667,42.666667 0 0 0 -42.66667,42.66667 V 896 a 42.66667,42.66667 0 0 0 85.33334,0 V 810.66667 A 42.666667,42.666667 0 0 0 512,768 Z m 244.48,-79.36 a 42.697057,42.697057 0 0 0 -59.30667,61.44 l 61.44,60.58667 a 42.666667,42.666667 0 0 0 29.44,11.94666 42.666667,42.666667 0 0 0 30.72,-12.8 42.666667,42.666667 0 0 0 0,-60.58666 z m -488.96,0 -61.44,59.30667 a 42.666667,42.666667 0 0 0 0,60.58666 42.666667,42.666667 0 0 0 30.72,12.8 42.666667,42.666667 0 0 0 28.58667,-10.66666 l 61.44,-59.30667 A 42.697057,42.697057 0 0 0 267.52,689.92 Z M 512,341.33333 A 170.66667,170.66667 0 1 0 682.66667,512 170.66667,170.66667 0 0 0 512,341.33333 Z"
         inkscape:connector-curvature="0"
         style="fill:#fbfbfb;fill-opacity:1" />
    </g>
  </g>
</svg>
