<?xml version="1.0" encoding="UTF-8" standalone="no"?>
<!-- Created with Inkscape (http://www.inkscape.org/) -->

<svg
   xmlns:dc="http://purl.org/dc/elements/1.1/"
   xmlns:cc="http://creativecommons.org/ns#"
   xmlns:rdf="http://www.w3.org/1999/02/22-rdf-syntax-ns#"
   xmlns:svg="http://www.w3.org/2000/svg"
   xmlns="http://www.w3.org/2000/svg"
   xmlns:sodipodi="http://sodipodi.sourceforge.net/DTD/sodipodi-0.dtd"
   xmlns:inkscape="http://www.inkscape.org/namespaces/inkscape"
   width="35mm"
   height="35mm"
   viewBox="0 0 35 35"
   version="1.1"
   id="svg644"
   inkscape:version="0.92.4 (5da689c313, 2019-01-14)"
   sodipodi:docname="icon_temperature.svg">
  <defs
     id="defs9" />
  <sodipodi:namedview
     id="base"
     pagecolor="#000000"
     bordercolor="#666666"
     borderopacity="1.0"
     inkscape:pageopacity="0"
     inkscape:pageshadow="2"
     inkscape:zoom="1.979899"
     inkscape:cx="-153.42607"
     inkscape:cy="58.524341"
     inkscape:document-units="mm"
     inkscape:current-layer="layer1"
     showgrid="false"
     fit-margin-top="0"
     fit-margin-left="0"
     fit-margin-right="0"
     fit-margin-bottom="0"
     inkscape:window-width="2560"
     inkscape:window-height="1377"
     inkscape:window-x="-8"
     inkscape:window-y="-8"
     inkscape:window-maximized="1" />
  <metadata
     id="metadata641">
    <rdf:RDF>
      <cc:Work
         rdf:about="">
        <dc:format>image/svg+xml</dc:format>
        <dc:type
           rdf:resource="http://purl.org/dc/dcmitype/StillImage" />
        <dc:title />
      </cc:Work>
    </rdf:RDF>
  </metadata>
  <g
     inkscape:label="Layer 1"
     inkscape:groupmode="layer"
     id="layer1"
     transform="translate(-55.827381,-119.99405)">
    <g
       transform="matrix(0.02023135,0,0,0.02023135,63.383322,127.53008)"
       id="g1466-6-7-6-6-8-37-8"
       style="display:inline;overflow:hidden;fill:#ffffff;fill-opacity:1;stroke:#ffffff;stroke-opacity:1">
      <path
         style="fill:#ffffff;fill-opacity:1;stroke:#ffffff;stroke-opacity:1"
         inkscape:connector-curvature="0"
         d="M 543.09696,630.33844 V 355.66527 c 0,-16.69837 -13.59867,-30.29704 -30.29704,-30.29704 h -2.39976 c -16.29841,0 -29.39713,13.19871 -29.39713,29.39712 v 275.57309 c -45.19559,13.09872 -78.29236,53.49478 -78.29236,101.69007 0,58.89425 48.89523,106.58959 109.38932,106.58959 60.3941,0 109.28933,-47.79533 109.28933,-106.58959 -0.1,-48.19529 -33.19676,-88.49136 -78.29236,-101.69007 z M 703.98125,508.65033 c -6.79933,-5.59946 -10.79894,-13.19871 -10.79894,-20.99795 V 177.08271 C 693.18231,79.392247 611.89025,0 512,0 412.10975,0 330.81769,79.392247 330.81769,177.08271 v 301.77053 c 0,13.09872 -5.39947,25.19754 -14.69856,33.09677 -65.49361,55.2946 -102.98994,135.58675 -102.98994,220.17849 0,160.88429 134.0869,291.8715 298.9708,291.8715 164.8839,0 298.9708,-130.88722 298.9708,-291.8715 -0.1,-86.59154 -39.09618,-168.08358 -107.08954,-223.47817 z M 512,931.30905 c -112.98897,0 -204.78,-89.39127 -204.78,-199.28054 0,-68.49331 35.7965,-131.48716 95.69065,-168.38355 l 14.49859,-8.89913 c 4.69954,-2.89972 7.59926,-8.09921 7.59926,-13.59868 V 177.08271 c 0,-46.59545 39.09618,-84.491752 87.09149,-84.491752 47.99531,0 87.0915,37.896302 87.0915,84.491752 v 364.06444 c 0,5.49947 2.89971,10.69896 7.59925,13.59868 l 14.49859,8.89913 c 59.89415,36.89639 95.59066,99.79025 95.59066,168.38355 C 716.78,841.91778 624.88898,931.30905 512,931.30905 Z"
         id="path1455-7-9-5-9-1-4-31" />
    </g>
  </g>
</svg>
