<?xml version="1.0" encoding="UTF-8" standalone="no"?>
<!-- Created with Inkscape (http://www.inkscape.org/) -->

<svg
   xmlns:dc="http://purl.org/dc/elements/1.1/"
   xmlns:cc="http://creativecommons.org/ns#"
   xmlns:rdf="http://www.w3.org/1999/02/22-rdf-syntax-ns#"
   xmlns:svg="http://www.w3.org/2000/svg"
   xmlns="http://www.w3.org/2000/svg"
   xmlns:sodipodi="http://sodipodi.sourceforge.net/DTD/sodipodi-0.dtd"
   xmlns:inkscape="http://www.inkscape.org/namespaces/inkscape"
   width="35mm"
   height="35mm"
   viewBox="0 0 35 35"
   version="1.1"
   id="svg644"
   inkscape:version="0.92.4 (5da689c313, 2019-01-14)"
   sodipodi:docname="icon_air_flow.svg">
  <defs
     id="defs9" />
  <sodipodi:namedview
     id="base"
     pagecolor="#000000"
     bordercolor="#666666"
     borderopacity="1.0"
     inkscape:pageopacity="0"
     inkscape:pageshadow="2"
     inkscape:zoom="2.8"
     inkscape:cx="17.57551"
     inkscape:cy="67.886655"
     inkscape:document-units="mm"
     inkscape:current-layer="layer1"
     showgrid="false"
     fit-margin-top="0"
     fit-margin-left="0"
     fit-margin-right="0"
     fit-margin-bottom="0"
     inkscape:window-width="1202"
     inkscape:window-height="793"
     inkscape:window-x="784"
     inkscape:window-y="346"
     inkscape:window-maximized="0" />
  <metadata
     id="metadata641">
    <rdf:RDF>
      <cc:Work
         rdf:about="">
        <dc:format>image/svg+xml</dc:format>
        <dc:type
           rdf:resource="http://purl.org/dc/dcmitype/StillImage" />
        <dc:title />
      </cc:Work>
    </rdf:RDF>
  </metadata>
  <g
     inkscape:label="Layer 1"
     inkscape:groupmode="layer"
     id="layer1"
     transform="translate(-55.827381,-119.99405)">
    <g
       style="overflow:hidden;fill:#fcfcfc;fill-opacity:1;stroke:#ffffff;stroke-width:32.56782532;stroke-miterlimit:4;stroke-dasharray:none;stroke-opacity:1"
       id="g861"
       transform="matrix(0.02456412,0,0,0.02456412,60.724405,124.95018)">
      <path
         id="path847"
         d="m 41.890909,549.23636 c -4.654545,0 -9.309091,0 -16.290909,-2.32727 C 16.290909,542.25455 0,530.61818 0,516.65454 c 0,-11.63636 11.636364,-27.92727 20.945455,-34.90909 6.981818,-4.65454 16.290909,-4.65454 23.272727,-4.65454 H 816.87273 c 65.16363,0 111.70909,-30.25455 128,-83.78182 18.61818,-58.18182 -11.63637,-123.34545 -69.81819,-146.61818 -13.96363,-4.65455 -27.92727,-9.30909 -44.21818,-9.30909 -46.54545,0 -88.43636,25.6 -107.05454,67.49091 -2.32727,4.65454 -4.65455,9.30909 -4.65455,13.96363 -2.32727,4.65455 -2.32727,6.98182 -4.65454,11.63637 -6.98182,16.29091 -18.61818,25.6 -30.25455,25.6 -4.65454,0 -11.63636,-2.32728 -16.29091,-4.65455 -11.63636,-6.98182 -23.27272,-30.25454 -20.94545,-44.21818 13.96363,-67.49091 81.45454,-130.32727 153.6,-139.63636 9.30909,0 18.61818,-2.32728 25.6,-2.32728 95.41818,0 172.21818,62.83637 190.83638,153.6 18.6182,102.4 -41.89093,197.81819 -144.29093,221.09091 -20.94545,4.65455 -41.89091,4.65455 -62.83636,4.65455 H 48.872727 c 0,4.65454 -2.327273,4.65454 -6.981818,4.65454 z m 630.690911,435.2 C 614.4,984.43636 558.54545,954.18182 530.61818,902.98182 523.63636,891.34545 507.34545,863.41818 537.6,844.8 c 6.98182,-4.65455 13.96364,-6.98182 20.94545,-6.98182 16.29091,0 27.92728,13.96364 34.90909,27.92727 18.61819,30.25455 44.21819,46.54546 76.8,46.54546 h 16.29091 c 37.23637,-4.65455 62.83637,-27.92727 74.47273,-67.49091 6.98182,-25.6 2.32727,-51.2 -13.96364,-72.14546 -13.96363,-20.94545 -37.23636,-34.90909 -62.83636,-37.23636 -27.92727,-2.32727 -58.18182,-2.32727 -81.45454,-2.32727 H 44.218182 c -4.654545,0 -11.636364,0 -18.618182,-4.65455 -9.309091,-4.65454 -23.272727,-18.61818 -23.272727,-30.25454 0,-11.63637 11.636364,-25.6 20.945454,-32.58182 6.981818,-4.65454 13.963636,-4.65454 20.945455,-4.65454 H 653.96364 c 97.74545,0 162.90909,51.2 179.2,137.30908 13.96363,76.8 -30.25455,153.60001 -102.4,179.20001 -18.61819,4.65454 -37.23637,6.98181 -58.18182,6.98181 z"
         inkscape:connector-curvature="0"
         style="fill:#fcfcfc;fill-opacity:1;stroke:#ffffff;stroke-width:32.56782532;stroke-miterlimit:4;stroke-dasharray:none;stroke-opacity:1" />
      <path
         id="path849"
         d="M 244.36364,365.38182 H 46.545455 c -13.963636,0 -27.927273,0 -37.236364,-9.30909 C 2.327273,349.09091 0,339.78182 0,330.47273 0,293.23636 32.581818,293.23636 53.527273,293.23636 H 423.56364 c 46.54545,0 83.78181,-32.58181 90.76363,-79.12727 C 518.98182,167.56364 493.38182,128 446.83636,114.03636 c -6.98181,-2.32727 -13.96363,-2.32727 -20.94545,-2.32727 -27.92727,0 -55.85455,13.96364 -72.14546,37.23636 -2.32727,2.32728 -4.65454,6.98182 -6.98181,9.30909 -2.32728,2.32728 -4.65455,6.98182 -6.98182,9.3091 -9.30909,11.63636 -20.94546,18.61818 -30.25455,18.61818 -6.98181,0 -13.96363,-2.32728 -18.61818,-9.30909 -11.63636,-9.30909 -16.29091,-34.90909 -11.63636,-46.54546 C 300.21818,76.8 360.72727,37.236364 423.56364,37.236364 H 435.2 C 523.63636,44.218182 588.8,118.69091 586.47273,204.8 584.14545,293.23636 514.32727,360.72727 428.21818,363.05454 h -74.47272 c -18.61819,2.32728 -93.09091,2.32728 -109.38182,2.32728 z"
         inkscape:connector-curvature="0"
         style="fill:#fcfcfc;fill-opacity:1;stroke:#ffffff;stroke-width:32.56782532;stroke-miterlimit:4;stroke-dasharray:none;stroke-opacity:1" />
    </g>
  </g>
</svg>
